<?xml version="1.0" encoding="utf-8"?><!-- Generator: Adobe Illustrator 17.0.2, SVG Export Plug-In . SVG Version: 6.00 Build 0)  --><!DOCTYPE svg PUBLIC "-//W3C//DTD SVG 1.1//EN" "http://www.w3.org/Graphics/SVG/1.1/DTD/svg11.dtd"><svg xmlns="http://www.w3.org/2000/svg" xmlns:xlink="http://www.w3.org/1999/xlink" version="1.1" id="Layer_1" x="0px" y="0px" width="102.1209945678711" height="253.9250030517578" viewBox="99.88899993896484 10.449999809265137 102.1209945678711 253.9250030517578" enable-background="new 0 0 240 222.867" xml:space="preserve">
<g>
	<polygon fill="#815A49" points="122.958,143.491 140.078,117.812 139.008,148.841  " stroke-width="1"/>
	<polygon fill="#241C4C" points="171.121,147.497 143.065,147.899 142.015,210.82 171.046,210.854  " stroke-width="1"/>
	<polygon fill="#241C4C" points="169.769,148.039 138.473,147.771 137.938,173.45 169.769,173.45  " stroke-width="1"/>
	<polygon fill="#0C4F50" points="171.107,71.737 138.54,70.935 138.473,149.577 171.107,149.577  " stroke-width="1"/>
	<polygon fill="#815A49" points="115.87,73.141 115.669,11.552 179.064,10.95 179.265,73.342  " stroke-width="1"/>
	<polygon fill="#815A49" points="195.716,16.166 179.064,11.151 178.596,73.409 195.916,73.743  " stroke-width="1"/>
	<polygon fill="#241C4C" points="161.401,166.028 138.274,150.14 101.049,200.879 124.719,217.687  " stroke-width="1"/>
	<polygon fill="#241C4C" points="129.16,200.399 101.107,200.949 100.389,263.875 129.42,263.755  " stroke-width="1"/>
	<polygon fill="#241C4C" points="164.677,194.18 142.103,210.844 177.889,262.608 201.51,245.73  " stroke-width="1"/>
	<polygon fill="#074B4C" points="186.086,98.018 154.79,107.648 139.543,80.364 170.037,70.734  " stroke-width="1"/>
	<polygon fill="#815A49" points="199.126,122.694 169.435,132.324 154.188,105.04 184.682,95.41  " stroke-width="1"/>
	<polygon fill="#815A49" points="199.207,122.821 169.346,123.223 169.234,168.836 199.133,169.125  " stroke-width="1"/>
	<path fill="#231F20" d="M130.983,29.006c-7.49,8.025-15.238-0.537-15.238-0.537l-0.076-16.917l63.395-0.602l0.06,18.59   c0,0-9.623,4.548-17.112-1.605c-7.757,7.49-17.176,0.482-17.176,0.482S136.868,38.1,130.983,29.006z" stroke-width="1"/>
	<path fill="#231F20" d="M195.716,16.166l-16.651-5.015l-0.126,16.784c0,0,3.938,9.631,8.218,3.211   c4.815,6.42,8.608,23.004,8.608,23.004L195.716,16.166z" stroke-width="1"/>
	<rect x="154.522" y="36.495" fill="#FFFFFF" width="17.119" height="12.305" stroke-width="1"/>
	<rect x="155.592" y="40.575" fill="#231F20" width="10.7" height="7.69" stroke-width="1"/>
	<rect x="126.168" y="35.96" fill="#FFFFFF" width="17.119" height="12.305" stroke-width="1"/>
	<rect x="127.238" y="40.04" fill="#231F20" width="10.7" height="7.69" stroke-width="1"/>
	<rect x="162.279" y="41.31" fill="#FFFFFF" width="2.675" height="4.28" stroke-width="1"/>
	<rect x="133.39" y="40.775" fill="#FFFFFF" width="2.675" height="4.28" stroke-width="1"/>
	<path fill="#231F20" d="M167.897,60.569c0,0-2.675,4.28-13.909,5.35c-11.235,1.07-22.469-2.14-22.469-2.14" stroke-width="1"/>
	<polygon fill="#262335" points="193.031,234.838 170.457,251.503 177.889,262.608 201.51,245.73  " stroke-width="1"/>
	<polygon fill="#262335" points="129.16,249.617 101.107,250.168 100.389,263.875 129.42,263.755  " stroke-width="1"/>
</g>
</svg>